<svg width="495" height="195" viewBox="0 0 495 195" xmlns="http://www.w3.org/2000/svg">
    <!-- Generated at: 2025-12-25 02:22:16 -->
    <style>
        .header { font: 600 18px 'Segoe UI', Ubuntu, Sans-Serif; fill: #ffffff; }
        .lang-name { font: 400 13px 'Segoe UI', Ubuntu, Sans-Serif; fill: #c9d1d9; }
        .lang-percent { font: 400 12px 'Segoe UI', Ubuntu, Sans-Serif; fill: #8b949e; }
    </style>
    <rect x="0.5" y="0.5" width="494" height="194" rx="6" fill="#0d1117" stroke="#30363d"/>
    <text x="25" y="35" class="header">WakaTime All-Time</text>
    <rect x="25" y="60" width="445" height="10" rx="5" fill="#21262d" /><rect x="25" y="60" width="343.89599999999996" height="10" fill="#3D6117" /><rect x="368.89599999999996" y="60" width="82.058" height="10" fill="#555555" /><rect x="450.95399999999995" y="60" width="7.031000000000001" height="10" fill="#3572A5" /><rect x="457.98499999999996" y="60" width="3.2039999999999997" height="10" fill="#083fa1" /><rect x="461.18899999999996" y="60" width="2.5364999999999998" height="10" fill="#e34c26" /><rect x="463.72549999999995" y="60" width="1.3795" height="10" fill="#f34b7d" /><rect x="465.10499999999996" y="60" width="1.2904999999999998" height="10" fill="#8b949e" /><rect x="466.39549999999997" y="60" width="3.56" height="10" fill="#8b949e" />
    
        <g transform="translate(25, 95)">
            <circle cx="6" cy="-5" r="5" fill="#3D6117"/>
            <text x="18" y="0" class="lang-name">TeX</text>
            <text x="18" y="0" dx="180" class="lang-percent" text-anchor="end">162 hrs 41 mins</text>
        </g>
        
        <g transform="translate(282.5, 95)">
            <circle cx="6" cy="-5" r="5" fill="#555555"/>
            <text x="18" y="0" class="lang-name">C</text>
            <text x="18" y="0" dx="180" class="lang-percent" text-anchor="end">38 hrs 49 mins</text>
        </g>
        
        <g transform="translate(25, 120)">
            <circle cx="6" cy="-5" r="5" fill="#3572A5"/>
            <text x="18" y="0" class="lang-name">Python</text>
            <text x="18" y="0" dx="180" class="lang-percent" text-anchor="end">3 hrs 19 mins</text>
        </g>
        
        <g transform="translate(282.5, 120)">
            <circle cx="6" cy="-5" r="5" fill="#083fa1"/>
            <text x="18" y="0" class="lang-name">Markdown</text>
            <text x="18" y="0" dx="180" class="lang-percent" text-anchor="end">1 hr 31 mins</text>
        </g>
        
        <g transform="translate(25, 145)">
            <circle cx="6" cy="-5" r="5" fill="#e34c26"/>
            <text x="18" y="0" class="lang-name">HTML</text>
            <text x="18" y="0" dx="180" class="lang-percent" text-anchor="end">1 hr 11 mins</text>
        </g>
        
        <g transform="translate(282.5, 145)">
            <circle cx="6" cy="-5" r="5" fill="#f34b7d"/>
            <text x="18" y="0" class="lang-name">C++</text>
            <text x="18" y="0" dx="180" class="lang-percent" text-anchor="end">38 mins</text>
        </g>
        
        <g transform="translate(25, 170)">
            <circle cx="6" cy="-5" r="5" fill="#8b949e"/>
            <text x="18" y="0" class="lang-name">Text</text>
            <text x="18" y="0" dx="180" class="lang-percent" text-anchor="end">36 mins</text>
        </g>
        
        <g transform="translate(282.5, 170)">
            <circle cx="6" cy="-5" r="5" fill="#8b949e"/>
            <text x="18" y="0" class="lang-name">Other</text>
            <text x="18" y="0" dx="180" class="lang-percent" text-anchor="end">1 hrs 41 mins</text>
        </g>
        
</svg>