<svg width="495" height="195" viewBox="0 0 495 195" xmlns="http://www.w3.org/2000/svg">
    <!-- Generated at: 2025-12-05 02:12:32 -->
    <style>
        .header { font: 600 18px 'Segoe UI', Ubuntu, Sans-Serif; fill: #ffffff; }
        .lang-name { font: 400 13px 'Segoe UI', Ubuntu, Sans-Serif; fill: #c9d1d9; }
        .lang-percent { font: 400 12px 'Segoe UI', Ubuntu, Sans-Serif; fill: #8b949e; }
    </style>
    <rect x="0.5" y="0.5" width="494" height="194" rx="6" fill="#0d1117" stroke="#30363d"/>
    <text x="25" y="35" class="header">WakaTime All-Time</text>
    <rect x="25" y="60" width="445" height="10" rx="5" fill="#21262d" /><rect x="25" y="60" width="328.232" height="10" fill="#3D6117" /><rect x="353.232" y="60" width="99.5465" height="10" fill="#555555" /><rect x="452.7785" y="60" width="8.455" height="10" fill="#3572A5" /><rect x="461.2335" y="60" width="2.314" height="10" fill="#083fa1" /><rect x="463.5475" y="60" width="1.6909999999999998" height="10" fill="#e34c26" /><rect x="465.2385" y="60" width="1.6465" height="10" fill="#f34b7d" /><rect x="466.885" y="60" width="1.0235" height="10" fill="#8b949e" /><rect x="467.9085" y="60" width="2.0470000000000006" height="10" fill="#8b949e" />
    
        <g transform="translate(25, 95)">
            <circle cx="6" cy="-5" r="5" fill="#3D6117"/>
            <text x="18" y="0" class="lang-name">TeX</text>
            <text x="18" y="0" dx="180" class="lang-percent" text-anchor="end">127 hrs 50 mins</text>
        </g>
        
        <g transform="translate(282.5, 95)">
            <circle cx="6" cy="-5" r="5" fill="#555555"/>
            <text x="18" y="0" class="lang-name">C</text>
            <text x="18" y="0" dx="180" class="lang-percent" text-anchor="end">38 hrs 46 mins</text>
        </g>
        
        <g transform="translate(25, 120)">
            <circle cx="6" cy="-5" r="5" fill="#3572A5"/>
            <text x="18" y="0" class="lang-name">Python</text>
            <text x="18" y="0" dx="180" class="lang-percent" text-anchor="end">3 hrs 17 mins</text>
        </g>
        
        <g transform="translate(282.5, 120)">
            <circle cx="6" cy="-5" r="5" fill="#083fa1"/>
            <text x="18" y="0" class="lang-name">Markdown</text>
            <text x="18" y="0" dx="180" class="lang-percent" text-anchor="end">54 mins</text>
        </g>
        
        <g transform="translate(25, 145)">
            <circle cx="6" cy="-5" r="5" fill="#e34c26"/>
            <text x="18" y="0" class="lang-name">HTML</text>
            <text x="18" y="0" dx="180" class="lang-percent" text-anchor="end">39 mins</text>
        </g>
        
        <g transform="translate(282.5, 145)">
            <circle cx="6" cy="-5" r="5" fill="#f34b7d"/>
            <text x="18" y="0" class="lang-name">C++</text>
            <text x="18" y="0" dx="180" class="lang-percent" text-anchor="end">38 mins</text>
        </g>
        
        <g transform="translate(25, 170)">
            <circle cx="6" cy="-5" r="5" fill="#8b949e"/>
            <text x="18" y="0" class="lang-name">Image (svg)</text>
            <text x="18" y="0" dx="180" class="lang-percent" text-anchor="end">23 mins</text>
        </g>
        
        <g transform="translate(282.5, 170)">
            <circle cx="6" cy="-5" r="5" fill="#8b949e"/>
            <text x="18" y="0" class="lang-name">Other</text>
            <text x="18" y="0" dx="180" class="lang-percent" text-anchor="end">48 mins</text>
        </g>
        
</svg>