<svg width="495" height="195" viewBox="0 0 495 195" xmlns="http://www.w3.org/2000/svg">
    <!-- Generated at: 2025-12-20 02:07:49 -->
    <style>
        .header { font: 600 18px 'Segoe UI', Ubuntu, Sans-Serif; fill: #ffffff; }
        .lang-name { font: 400 13px 'Segoe UI', Ubuntu, Sans-Serif; fill: #c9d1d9; }
        .lang-percent { font: 400 12px 'Segoe UI', Ubuntu, Sans-Serif; fill: #8b949e; }
    </style>
    <rect x="0.5" y="0.5" width="494" height="194" rx="6" fill="#0d1117" stroke="#30363d"/>
    <text x="25" y="35" class="header">WakaTime Last 7 Days</text>
    <rect x="25" y="60" width="445" height="10" rx="5" fill="#21262d" /><rect x="25" y="60" width="402.191" height="10" fill="#3D6117" /><rect x="427.191" y="60" width="30.616" height="10" fill="#8b949e" /><rect x="457.80699999999996" y="60" width="7.297999999999999" height="10" fill="#083fa1" /><rect x="465.10499999999996" y="60" width="4.2275" height="10" fill="#e34c26" /><rect x="469.3325" y="60" width="0.623" height="10" fill="#8b949e" />
    
        <g transform="translate(25, 95)">
            <circle cx="6" cy="-5" r="5" fill="#3D6117"/>
            <text x="18" y="0" class="lang-name">TeX</text>
            <text x="18" y="0" dx="180" class="lang-percent" text-anchor="end">4 hrs 49 mins</text>
        </g>
        
        <g transform="translate(282.5, 95)">
            <circle cx="6" cy="-5" r="5" fill="#8b949e"/>
            <text x="18" y="0" class="lang-name">Text</text>
            <text x="18" y="0" dx="180" class="lang-percent" text-anchor="end">22 mins</text>
        </g>
        
        <g transform="translate(25, 120)">
            <circle cx="6" cy="-5" r="5" fill="#083fa1"/>
            <text x="18" y="0" class="lang-name">Markdown</text>
            <text x="18" y="0" dx="180" class="lang-percent" text-anchor="end">5 mins</text>
        </g>
        
        <g transform="translate(282.5, 120)">
            <circle cx="6" cy="-5" r="5" fill="#e34c26"/>
            <text x="18" y="0" class="lang-name">HTML</text>
            <text x="18" y="0" dx="180" class="lang-percent" text-anchor="end">3 mins</text>
        </g>
        
        <g transform="translate(25, 145)">
            <circle cx="6" cy="-5" r="5" fill="#8b949e"/>
            <text x="18" y="0" class="lang-name">Other</text>
            <text x="18" y="0" dx="180" class="lang-percent" text-anchor="end">0 secs</text>
        </g>
        
</svg>