<svg width="495" height="195" viewBox="0 0 495 195" xmlns="http://www.w3.org/2000/svg">
    <!-- Generated at: 2025-12-08 02:18:17 -->
    <style>
        .header { font: 600 18px 'Segoe UI', Ubuntu, Sans-Serif; fill: #ffffff; }
        .lang-name { font: 400 13px 'Segoe UI', Ubuntu, Sans-Serif; fill: #c9d1d9; }
        .lang-percent { font: 400 12px 'Segoe UI', Ubuntu, Sans-Serif; fill: #8b949e; }
    </style>
    <rect x="0.5" y="0.5" width="494" height="194" rx="6" fill="#0d1117" stroke="#30363d"/>
    <text x="25" y="35" class="header">WakaTime Last 7 Days</text>
    <rect x="25" y="60" width="445" height="10" rx="5" fill="#21262d" /><rect x="25" y="60" width="394.00300000000004" height="10" fill="#3D6117" /><rect x="419.00300000000004" y="60" width="31.951" height="10" fill="#3572A5" /><rect x="450.95400000000006" y="60" width="7.12" height="10" fill="#8b949e" /><rect x="458.07400000000007" y="60" width="6.675" height="10" fill="#083fa1" /><rect x="464.7490000000001" y="60" width="1.2904999999999998" height="10" fill="#cb171e" /><rect x="466.0395000000001" y="60" width="1.2015" height="10" fill="#8b949e" /><rect x="467.2410000000001" y="60" width="0.7565000000000001" height="10" fill="#8b949e" /><rect x="467.9975000000001" y="60" width="2.0469999999999997" height="10" fill="#8b949e" />
    
        <g transform="translate(25, 95)">
            <circle cx="6" cy="-5" r="5" fill="#3D6117"/>
            <text x="18" y="0" class="lang-name">TeX</text>
            <text x="18" y="0" dx="180" class="lang-percent" text-anchor="end">22 hrs 3 mins</text>
        </g>
        
        <g transform="translate(282.5, 95)">
            <circle cx="6" cy="-5" r="5" fill="#3572A5"/>
            <text x="18" y="0" class="lang-name">Python</text>
            <text x="18" y="0" dx="180" class="lang-percent" text-anchor="end">1 hr 47 mins</text>
        </g>
        
        <g transform="translate(25, 120)">
            <circle cx="6" cy="-5" r="5" fill="#8b949e"/>
            <text x="18" y="0" class="lang-name">Image (svg)</text>
            <text x="18" y="0" dx="180" class="lang-percent" text-anchor="end">23 mins</text>
        </g>
        
        <g transform="translate(282.5, 120)">
            <circle cx="6" cy="-5" r="5" fill="#083fa1"/>
            <text x="18" y="0" class="lang-name">Markdown</text>
            <text x="18" y="0" dx="180" class="lang-percent" text-anchor="end">22 mins</text>
        </g>
        
        <g transform="translate(25, 145)">
            <circle cx="6" cy="-5" r="5" fill="#cb171e"/>
            <text x="18" y="0" class="lang-name">YAML</text>
            <text x="18" y="0" dx="180" class="lang-percent" text-anchor="end">4 mins</text>
        </g>
        
        <g transform="translate(282.5, 145)">
            <circle cx="6" cy="-5" r="5" fill="#8b949e"/>
            <text x="18" y="0" class="lang-name">Text</text>
            <text x="18" y="0" dx="180" class="lang-percent" text-anchor="end">4 mins</text>
        </g>
        
        <g transform="translate(25, 170)">
            <circle cx="6" cy="-5" r="5" fill="#8b949e"/>
            <text x="18" y="0" class="lang-name">Git Config</text>
            <text x="18" y="0" dx="180" class="lang-percent" text-anchor="end">2 mins</text>
        </g>
        
        <g transform="translate(282.5, 170)">
            <circle cx="6" cy="-5" r="5" fill="#8b949e"/>
            <text x="18" y="0" class="lang-name">Other</text>
            <text x="18" y="0" dx="180" class="lang-percent" text-anchor="end">6 mins</text>
        </g>
        
</svg>