<svg width="495" height="195" viewBox="0 0 495 195" xmlns="http://www.w3.org/2000/svg">
    <!-- Generated at: 2026-01-06 02:25:32 -->
    <style>
        .header { font: 600 18px 'Segoe UI', Ubuntu, Sans-Serif; fill: #ffffff; }
        .lang-name { font: 400 13px 'Segoe UI', Ubuntu, Sans-Serif; fill: #c9d1d9; }
        .lang-percent { font: 400 12px 'Segoe UI', Ubuntu, Sans-Serif; fill: #8b949e; }
    </style>
    <rect x="0.5" y="0.5" width="494" height="194" rx="6" fill="#0d1117" stroke="#30363d"/>
    <text x="25" y="35" class="header">WakaTime All-Time</text>
    <rect x="25" y="60" width="445" height="10" rx="5" fill="#21262d" /><rect x="25" y="60" width="348.92449999999997" height="10" fill="#3D6117" /><rect x="373.92449999999997" y="60" width="77.6525" height="10" fill="#555555" /><rect x="451.577" y="60" width="6.586" height="10" fill="#3572A5" /><rect x="458.163" y="60" width="3.0260000000000002" height="10" fill="#083fa1" /><rect x="461.189" y="60" width="2.403" height="10" fill="#e34c26" /><rect x="463.59200000000004" y="60" width="1.2904999999999998" height="10" fill="#f34b7d" /><rect x="464.88250000000005" y="60" width="1.2015" height="10" fill="#8b949e" /><rect x="466.08400000000006" y="60" width="3.8715" height="10" fill="#8b949e" />
    
        <g transform="translate(25, 95)">
            <circle cx="6" cy="-5" r="5" fill="#3D6117"/>
            <text x="18" y="0" class="lang-name">TeX</text>
            <text x="18" y="0" dx="180" class="lang-percent" text-anchor="end">175 hrs 22 mins</text>
        </g>
        
        <g transform="translate(282.5, 95)">
            <circle cx="6" cy="-5" r="5" fill="#555555"/>
            <text x="18" y="0" class="lang-name">C</text>
            <text x="18" y="0" dx="180" class="lang-percent" text-anchor="end">39 hrs 1 min</text>
        </g>
        
        <g transform="translate(25, 120)">
            <circle cx="6" cy="-5" r="5" fill="#3572A5"/>
            <text x="18" y="0" class="lang-name">Python</text>
            <text x="18" y="0" dx="180" class="lang-percent" text-anchor="end">3 hrs 19 mins</text>
        </g>
        
        <g transform="translate(282.5, 120)">
            <circle cx="6" cy="-5" r="5" fill="#083fa1"/>
            <text x="18" y="0" class="lang-name">Markdown</text>
            <text x="18" y="0" dx="180" class="lang-percent" text-anchor="end">1 hr 31 mins</text>
        </g>
        
        <g transform="translate(25, 145)">
            <circle cx="6" cy="-5" r="5" fill="#e34c26"/>
            <text x="18" y="0" class="lang-name">HTML</text>
            <text x="18" y="0" dx="180" class="lang-percent" text-anchor="end">1 hr 11 mins</text>
        </g>
        
        <g transform="translate(282.5, 145)">
            <circle cx="6" cy="-5" r="5" fill="#f34b7d"/>
            <text x="18" y="0" class="lang-name">C++</text>
            <text x="18" y="0" dx="180" class="lang-percent" text-anchor="end">39 mins</text>
        </g>
        
        <g transform="translate(25, 170)">
            <circle cx="6" cy="-5" r="5" fill="#8b949e"/>
            <text x="18" y="0" class="lang-name">Text</text>
            <text x="18" y="0" dx="180" class="lang-percent" text-anchor="end">36 mins</text>
        </g>
        
        <g transform="translate(282.5, 170)">
            <circle cx="6" cy="-5" r="5" fill="#8b949e"/>
            <text x="18" y="0" class="lang-name">Other</text>
            <text x="18" y="0" dx="180" class="lang-percent" text-anchor="end">1 hrs 56 mins</text>
        </g>
        
</svg>