<svg width="495" height="195" viewBox="0 0 495 195" xmlns="http://www.w3.org/2000/svg">
    <!-- Generated at: 2026-01-12 02:35:12 -->
    <style>
        .header { font: 600 18px 'Segoe UI', Ubuntu, Sans-Serif; fill: #ffffff; }
        .lang-name { font: 400 13px 'Segoe UI', Ubuntu, Sans-Serif; fill: #c9d1d9; }
        .lang-percent { font: 400 12px 'Segoe UI', Ubuntu, Sans-Serif; fill: #8b949e; }
    </style>
    <rect x="0.5" y="0.5" width="494" height="194" rx="6" fill="#0d1117" stroke="#30363d"/>
    <text x="25" y="35" class="header">WakaTime Last 7 Days</text>
    <rect x="25" y="60" width="445" height="10" rx="5" fill="#21262d" /><rect x="25" y="60" width="176.30899999999997" height="10" fill="#3D6117" /><rect x="201.30899999999997" y="60" width="104.7975" height="10" fill="#3178c6" /><rect x="306.1065" y="60" width="49.12799999999999" height="10" fill="#e34c26" /><rect x="355.23449999999997" y="60" width="43.699000000000005" height="10" fill="#083fa1" /><rect x="398.9335" y="60" width="35.333" height="10" fill="#f1e05a" /><rect x="434.26649999999995" y="60" width="14.506999999999998" height="10" fill="#8b949e" /><rect x="448.77349999999996" y="60" width="12.638" height="10" fill="#563d7c" /><rect x="461.41149999999993" y="60" width="8.544" height="10" fill="#8b949e" />
    
        <g transform="translate(25, 95)">
            <circle cx="6" cy="-5" r="5" fill="#3D6117"/>
            <text x="18" y="0" class="lang-name">TeX</text>
            <text x="18" y="0" dx="180" class="lang-percent" text-anchor="end">7 hrs 34 mins</text>
        </g>
        
        <g transform="translate(282.5, 95)">
            <circle cx="6" cy="-5" r="5" fill="#3178c6"/>
            <text x="18" y="0" class="lang-name">TypeScript</text>
            <text x="18" y="0" dx="180" class="lang-percent" text-anchor="end">4 hrs 29 mins</text>
        </g>
        
        <g transform="translate(25, 120)">
            <circle cx="6" cy="-5" r="5" fill="#e34c26"/>
            <text x="18" y="0" class="lang-name">HTML</text>
            <text x="18" y="0" dx="180" class="lang-percent" text-anchor="end">2 hrs 6 mins</text>
        </g>
        
        <g transform="translate(282.5, 120)">
            <circle cx="6" cy="-5" r="5" fill="#083fa1"/>
            <text x="18" y="0" class="lang-name">Markdown</text>
            <text x="18" y="0" dx="180" class="lang-percent" text-anchor="end">1 hr 52 mins</text>
        </g>
        
        <g transform="translate(25, 145)">
            <circle cx="6" cy="-5" r="5" fill="#f1e05a"/>
            <text x="18" y="0" class="lang-name">JavaScript</text>
            <text x="18" y="0" dx="180" class="lang-percent" text-anchor="end">1 hr 31 mins</text>
        </g>
        
        <g transform="translate(282.5, 145)">
            <circle cx="6" cy="-5" r="5" fill="#8b949e"/>
            <text x="18" y="0" class="lang-name">Git Config</text>
            <text x="18" y="0" dx="180" class="lang-percent" text-anchor="end">37 mins</text>
        </g>
        
        <g transform="translate(25, 170)">
            <circle cx="6" cy="-5" r="5" fill="#563d7c"/>
            <text x="18" y="0" class="lang-name">CSS</text>
            <text x="18" y="0" dx="180" class="lang-percent" text-anchor="end">32 mins</text>
        </g>
        
        <g transform="translate(282.5, 170)">
            <circle cx="6" cy="-5" r="5" fill="#8b949e"/>
            <text x="18" y="0" class="lang-name">Other</text>
            <text x="18" y="0" dx="180" class="lang-percent" text-anchor="end">22 mins</text>
        </g>
        
</svg>