<svg width="495" height="195" viewBox="0 0 495 195" xmlns="http://www.w3.org/2000/svg">
    <!-- Generated at: 2026-01-19 02:33:56 -->
    
    <style>
        :root {
            --bg: #ffffff; /* background */
            --border: #e1e4e8;
            --title: #24292e;
            --text-primary: #24292e;
            --text-secondary: #586069; /* time, percent */
            --bar-bg: #ebedf0; /* background of progress bar */
        }
        
        @media (prefers-color-scheme: dark) {
            :root {
                --bg: #0d1117;
                --border: #30363d;
                --title: #ffffff;
                --text-primary: #c9d1d9;
                --text-secondary: #8b949e;
                --bar-bg: #21262d;
            }
        }
        
        /* Apply variables to SVG elements */
        .card-bg { fill: var(--bg); stroke: var(--border); }
        .header { font: 600 18px 'Segoe UI', Ubuntu, Sans-Serif; fill: var(--title); }
        .lang-name { font: 400 13px 'Segoe UI', Ubuntu, Sans-Serif; fill: var(--text-primary); }
        .lang-percent { font: 400 12px 'Segoe UI', Ubuntu, Sans-Serif; fill: var(--text-secondary); }
        .bar-bg { fill: var(--bar-bg); }
    </style>

    <rect x="0.5" y="0.5" width="494" height="194" rx="6" class="card-bg"/>
    <text x="25" y="35" class="header">WakaTime All-Time</text>
    <rect x="25" y="60" width="445" height="10" rx="5" class="bar-bg" /><rect x="25" y="60" width="330.72399999999993" height="10" fill="#3D6117" /><rect x="355.72399999999993" y="60" width="72.00099999999999" height="10" fill="#555555" /><rect x="427.7249999999999" y="60" width="9.033499999999998" height="10" fill="#3178c6" /><rect x="436.7584999999999" y="60" width="7.832000000000001" height="10" fill="#3572A5" /><rect x="444.5904999999999" y="60" width="6.5415" height="10" fill="#083fa1" /><rect x="451.1319999999999" y="60" width="6.0520000000000005" height="10" fill="#e34c26" /><rect x="457.1839999999999" y="60" width="3.2484999999999995" height="10" fill="#f1e05a" /><rect x="460.4324999999999" y="60" width="9.611999999999997" height="10" fill="#8b949e" />
    
        <g transform="translate(25, 95)">
            <circle cx="6" cy="-5" r="5" fill="#3D6117"/>
            <text x="18" y="0" class="lang-name">TeX</text>
            <text x="18" y="0" dx="180" class="lang-percent" text-anchor="end">180 hrs 29 mins</text>
        </g>
        
        <g transform="translate(282.5, 95)">
            <circle cx="6" cy="-5" r="5" fill="#555555"/>
            <text x="18" y="0" class="lang-name">C</text>
            <text x="18" y="0" dx="180" class="lang-percent" text-anchor="end">39 hrs 17 mins</text>
        </g>
        
        <g transform="translate(25, 120)">
            <circle cx="6" cy="-5" r="5" fill="#3178c6"/>
            <text x="18" y="0" class="lang-name">TypeScript</text>
            <text x="18" y="0" dx="180" class="lang-percent" text-anchor="end">4 hrs 56 mins</text>
        </g>
        
        <g transform="translate(282.5, 120)">
            <circle cx="6" cy="-5" r="5" fill="#3572A5"/>
            <text x="18" y="0" class="lang-name">Python</text>
            <text x="18" y="0" dx="180" class="lang-percent" text-anchor="end">4 hrs 16 mins</text>
        </g>
        
        <g transform="translate(25, 145)">
            <circle cx="6" cy="-5" r="5" fill="#083fa1"/>
            <text x="18" y="0" class="lang-name">Markdown</text>
            <text x="18" y="0" dx="180" class="lang-percent" text-anchor="end">3 hrs 34 mins</text>
        </g>
        
        <g transform="translate(282.5, 145)">
            <circle cx="6" cy="-5" r="5" fill="#e34c26"/>
            <text x="18" y="0" class="lang-name">HTML</text>
            <text x="18" y="0" dx="180" class="lang-percent" text-anchor="end">3 hrs 18 mins</text>
        </g>
        
        <g transform="translate(25, 170)">
            <circle cx="6" cy="-5" r="5" fill="#f1e05a"/>
            <text x="18" y="0" class="lang-name">JavaScript</text>
            <text x="18" y="0" dx="180" class="lang-percent" text-anchor="end">1 hr 46 mins</text>
        </g>
        
        <g transform="translate(282.5, 170)">
            <circle cx="6" cy="-5" r="5" fill="#8b949e"/>
            <text x="18" y="0" class="lang-name">Other</text>
            <text x="18" y="0" dx="180" class="lang-percent" text-anchor="end">5 hrs 13 mins</text>
        </g>
        
</svg>